<svg xmlns="http://www.w3.org/2000/svg" width="221.07180786132812" height="688.619384765625" viewBox="-0.5358984470367432 -738.619384765625 221.07180786132812 688.619384765625"><title>Neo4j Graph Visualization</title><desc>Created using Neo4j (http://www.neo4j.com/)</desc><g class="layer links"><g class="link"><path fill="#DFE1E3" d="M 133.93549896059994 -568.5578605891485 C 133.93549896059994 -558.7956724889501 133.93549896059994 -558.7956724889501 133.93549896059994 -518.5578605891485 L 86.06450103940006 -518.5578605891485 C 86.06450103940006 -528.3200486893469 86.06450103940006 -528.3200486893469 86.06450103940006 -568.5578605891485 Z"/><text font-size="10" font-family="Helvetica Neue, Helvetica, Arial, sans-serif" fill="rgb(107, 174, 214)" x="110" y="-554.5578605891485" text-anchor="end">442 </text><text font-size="10" font-family="Helvetica Neue, Helvetica, Arial, sans-serif" fill="rgb(107, 174, 214)" x="110" y="-554.5578605891485" text-anchor="start">rows</text></g><g class="link"><path fill="#DFE1E3" d="M 133.93549896059994 -415.99999999999994 C 133.93549896059994 -406.2378118998016 133.93549896059994 -406.2378118998016 133.93549896059994 -366 L 86.06450103940006 -366 C 86.06450103940006 -375.7621881001984 86.06450103940006 -375.7621881001984 86.06450103940006 -415.99999999999994 Z"/><text font-size="10" font-family="Helvetica Neue, Helvetica, Arial, sans-serif" fill="rgb(107, 174, 214)" x="110" y="-401.99999999999994" text-anchor="end">442 </text><text font-size="10" font-family="Helvetica Neue, Helvetica, Arial, sans-serif" fill="rgb(107, 174, 214)" x="110" y="-401.99999999999994" text-anchor="start">rows</text></g><g class="link"><path fill="#DFE1E3" d="M 133.93549896059994 -274 C 133.93549896059994 -264.2378118998016 133.93549896059994 -264.2378118998016 133.93549896059994 -224 L 86.06450103940006 -224 C 86.06450103940006 -233.7621881001984 86.06450103940006 -233.7621881001984 86.06450103940006 -274 Z"/><text font-size="10" font-family="Helvetica Neue, Helvetica, Arial, sans-serif" fill="rgb(107, 174, 214)" x="110" y="-260" text-anchor="end">442 </text><text font-size="10" font-family="Helvetica Neue, Helvetica, Arial, sans-serif" fill="rgb(107, 174, 214)" x="110" y="-260" text-anchor="start">rows</text></g><g class="link"><path fill="#DFE1E3" d="M 133.93549896059994 -118 C 133.93549896059994 -108.23781189980161 133.93549896059994 -108.23781189980161 133.93549896059994 -68 L 86.06450103940006 -68 C 86.06450103940006 -77.76218810019839 86.06450103940006 -77.76218810019839 86.06450103940006 -118 Z"/><text font-size="10" font-family="Helvetica Neue, Helvetica, Arial, sans-serif" fill="rgb(107, 174, 214)" x="110" y="-104" text-anchor="end">442 </text><text font-size="10" font-family="Helvetica Neue, Helvetica, Arial, sans-serif" fill="rgb(107, 174, 214)" x="110" y="-104" text-anchor="start">rows</text></g></g><g class="layer operators"><g class="operator" transform="translate(0, -68)"><rect class="background" width="220" height="18" rx="4" ry="4" fill="rgb(255, 255, 255)"/><g class="header" pointer-events="all"><path class="banner" d="M 216 0 A 4 4 0 0 1 220 4 L 220 14 A 4 4 0 0 1 216 18 L 4 18 A 4 4 0 0 1 0 14 L 0 4 A 4 4 0 0 1 4 0 Z" style="fill: rgb(198, 219, 239);"/><text class="title" font-size="11" font-family="Helvetica Neue, Helvetica, Arial, sans-serif" x="18" y="13" fill="#000000">Result</text></g><path class="cost" fill="#F25A29" d="M 216 18 A 4 4 0 0 1 216 18 L 4 18 A 4 4 0 0 1 4 18 Z"/><rect class="b-outline" width="220" rx="4" ry="4" fill="none" stroke-width="1" style="stroke: rgb(139, 153, 167);" height="18"/></g><g class="operator" transform="translate(0, -224)"><rect class="background" width="220" height="106" rx="4" ry="4" fill="rgb(255, 255, 255)"/><g class="header" pointer-events="all"><path class="banner" d="M 216 0 A 4 4 0 0 1 220 4 L 220 14 A 4 4 0 0 1 220 18 L 0 18 A 4 4 0 0 1 0 14 L 0 4 A 4 4 0 0 1 4 0 Z" style="fill: rgb(198, 219, 239);"/><path class="expand" fill="#000000" d="M -5 -10 L 8.66 0 L -5 10 Z" transform="translate(9, 9) rotate(90) scale(0.5,0.5)"/><text class="title" font-size="11" font-family="Helvetica Neue, Helvetica, Arial, sans-serif" x="18" y="13" fill="#000000">ProduceResults@neo4j</text></g><path class="cost" fill="#F25A29" d="M 216 106 A 4 4 0 0 1 216 106 L 4 106 A 4 4 0 0 1 4 106 Z"/><rect class="b-outline" width="220" rx="4" ry="4" fill="none" stroke-width="1" style="stroke: rgb(139, 153, 167);" height="106"/><g class="detail identifiers" transform="translate(0, 32)" font-family="'Fira Code',Monaco,'Courier New',Terminal,monospace"><text font-size="10" x="3" text-anchor="start" fill="black" font-family="Helvetica Neue, Helvetica, Arial, sans-serif">n, `n.name`</text></g><g class="detail padding" transform="translate(0, 46)" font-family="'Helvetica Neue',Helvetica,Arial,sans-serif"><text font-size="10" x="3" text-anchor="start" fill="black" font-family="Helvetica Neue, Helvetica, Arial, sans-serif"/><path class="divider" visibility="visible" d="M 0 -6 L 220 -6" stroke="#DFE1E3"/></g><g class="detail expression" transform="translate(0, 52)" font-family="'Fira Code',Monaco,'Courier New',Terminal,monospace"><text font-size="10" x="3" text-anchor="start" fill="black" font-family="Helvetica Neue, Helvetica, Arial, sans-serif">`n.name`</text></g><g class="detail padding" transform="translate(0, 66)" font-family="'Helvetica Neue',Helvetica,Arial,sans-serif"><text font-size="10" x="3" text-anchor="start" fill="black" font-family="Helvetica Neue, Helvetica, Arial, sans-serif"/><path class="divider" visibility="visible" d="M 0 -6 L 220 -6" stroke="#DFE1E3"/></g><g class="detail global-memory" transform="translate(0, 72)" font-family="'Helvetica Neue',Helvetica,Arial,sans-serif"><text font-size="10" x="110" text-anchor="end" fill="black" font-family="Helvetica Neue, Helvetica, Arial, sans-serif">176 </text><text font-size="10" x="110" text-anchor="start" fill="black" font-family="Helvetica Neue, Helvetica, Arial, sans-serif">total memory (bytes)</text></g><g class="detail estimated-rows" transform="translate(0, 86)" font-family="'Helvetica Neue',Helvetica,Arial,sans-serif"><text font-size="10" x="110" text-anchor="end" fill="black" font-family="Helvetica Neue, Helvetica, Arial, sans-serif">221 </text><text font-size="10" x="110" text-anchor="start" fill="black" font-family="Helvetica Neue, Helvetica, Arial, sans-serif">estimated rows</text></g><g class="detail db-hits" transform="translate(0, 100)" font-family="'Helvetica Neue',Helvetica,Arial,sans-serif"><text font-size="10" x="110" text-anchor="end" fill="black" font-family="Helvetica Neue, Helvetica, Arial, sans-serif">0 </text><text font-size="10" x="110" text-anchor="start" fill="black" font-family="Helvetica Neue, Helvetica, Arial, sans-serif">db hits</text></g></g><g class="operator" transform="translate(0, -366)"><rect class="background" width="220" height="92" rx="4" ry="4" fill="rgb(255, 255, 255)"/><g class="header" pointer-events="all"><path class="banner" d="M 216 0 A 4 4 0 0 1 220 4 L 220 14 A 4 4 0 0 1 220 18 L 0 18 A 4 4 0 0 1 0 14 L 0 4 A 4 4 0 0 1 4 0 Z" style="fill: rgb(107, 174, 214);"/><path class="expand" fill="#FFFFFF" d="M -5 -10 L 8.66 0 L -5 10 Z" transform="translate(9, 9) rotate(90) scale(0.5,0.5)"/><text class="title" font-size="11" font-family="Helvetica Neue, Helvetica, Arial, sans-serif" x="18" y="13" fill="#FFFFFF">Projection@neo4j</text></g><path class="cost" fill="#F25A29" d="M 216 92 A 4 4 0 0 1 216 92 L 4 92 A 4 4 0 0 1 4 92 Z"/><rect class="b-outline" width="220" rx="4" ry="4" fill="none" stroke-width="1" style="stroke: rgb(75, 122, 150);" height="92"/><g class="detail identifiers" transform="translate(0, 32)" font-family="'Fira Code',Monaco,'Courier New',Terminal,monospace"><text font-size="10" x="3" text-anchor="start" fill="black" font-family="Helvetica Neue, Helvetica, Arial, sans-serif">n, `n.name`</text></g><g class="detail padding" transform="translate(0, 46)" font-family="'Helvetica Neue',Helvetica,Arial,sans-serif"><text font-size="10" x="3" text-anchor="start" fill="black" font-family="Helvetica Neue, Helvetica, Arial, sans-serif"/><path class="divider" visibility="visible" d="M 0 -6 L 220 -6" stroke="#DFE1E3"/></g><g class="detail expression" transform="translate(0, 52)" font-family="'Fira Code',Monaco,'Courier New',Terminal,monospace"><text font-size="10" x="3" text-anchor="start" fill="black" font-family="Helvetica Neue, Helvetica, Arial, sans-serif">cache[n.name] AS `n.name`</text></g><g class="detail padding" transform="translate(0, 66)" font-family="'Helvetica Neue',Helvetica,Arial,sans-serif"><text font-size="10" x="3" text-anchor="start" fill="black" font-family="Helvetica Neue, Helvetica, Arial, sans-serif"/><path class="divider" visibility="visible" d="M 0 -6 L 220 -6" stroke="#DFE1E3"/></g><g class="detail estimated-rows" transform="translate(0, 72)" font-family="'Helvetica Neue',Helvetica,Arial,sans-serif"><text font-size="10" x="110" text-anchor="end" fill="black" font-family="Helvetica Neue, Helvetica, Arial, sans-serif">221 </text><text font-size="10" x="110" text-anchor="start" fill="black" font-family="Helvetica Neue, Helvetica, Arial, sans-serif">estimated rows</text></g><g class="detail db-hits" transform="translate(0, 86)" font-family="'Helvetica Neue',Helvetica,Arial,sans-serif"><text font-size="10" x="110" text-anchor="end" fill="black" font-family="Helvetica Neue, Helvetica, Arial, sans-serif">0 </text><text font-size="10" x="110" text-anchor="start" fill="black" font-family="Helvetica Neue, Helvetica, Arial, sans-serif">db hits</text></g></g><g class="operator" transform="translate(0, -518.557861328125)"><rect class="background" width="220" height="102.55786058914855" rx="4" ry="4" fill="rgb(255, 255, 255)"/><g class="header" pointer-events="all"><path class="banner" d="M 216 0 A 4 4 0 0 1 220 4 L 220 14 A 4 4 0 0 1 220 18 L 0 18 A 4 4 0 0 1 0 14 L 0 4 A 4 4 0 0 1 4 0 Z" style="fill: rgb(33, 113, 181);"/><path class="expand" fill="#FFFFFF" d="M -5 -10 L 8.66 0 L -5 10 Z" transform="translate(9, 9) rotate(90) scale(0.5,0.5)"/><text class="title" font-size="11" font-family="Helvetica Neue, Helvetica, Arial, sans-serif" x="18" y="13" fill="#FFFFFF">Filter@neo4j</text></g><path class="cost" fill="#F25A29" d="M 0 78 L 220 78 L 220 98.55786058914855 A 4 4 0 0 1 216 102.55786058914855 L 4 102.55786058914855 A 4 4 0 0 1 0 98.55786058914855 Z"/><text class="cost" font-size="10" font-family="Helvetica Neue, Helvetica, Arial, sans-serif" fill="white" x="110" text-anchor="end" y="92">884 </text><text class="cost" font-size="10" font-family="Helvetica Neue, Helvetica, Arial, sans-serif" fill="white" x="110" text-anchor="start" y="92">db hits</text><rect class="b-outline" width="220" rx="4" ry="4" fill="none" stroke-width="1" style="stroke: rgb(23, 79, 127);" height="102.55786058914855"/><g class="detail identifiers" transform="translate(0, 32)" font-family="'Fira Code',Monaco,'Courier New',Terminal,monospace"><text font-size="10" x="3" text-anchor="start" fill="black" font-family="Helvetica Neue, Helvetica, Arial, sans-serif">n</text></g><g class="detail padding" transform="translate(0, 46)" font-family="'Helvetica Neue',Helvetica,Arial,sans-serif"><text font-size="10" x="3" text-anchor="start" fill="black" font-family="Helvetica Neue, Helvetica, Arial, sans-serif"/><path class="divider" visibility="visible" d="M 0 -6 L 220 -6" stroke="#DFE1E3"/></g><g class="detail expression" transform="translate(0, 52)" font-family="'Fira Code',Monaco,'Courier New',Terminal,monospace"><text font-size="10" x="3" text-anchor="start" fill="black" font-family="Helvetica Neue, Helvetica, Arial, sans-serif">n.bornIn IS NOT NULL</text></g><g class="detail padding" transform="translate(0, 66)" font-family="'Helvetica Neue',Helvetica,Arial,sans-serif"><text font-size="10" x="3" text-anchor="start" fill="black" font-family="Helvetica Neue, Helvetica, Arial, sans-serif"/><path class="divider" visibility="visible" d="M 0 -6 L 220 -6" stroke="#DFE1E3"/></g><g class="detail estimated-rows" transform="translate(0, 72)" font-family="'Helvetica Neue',Helvetica,Arial,sans-serif"><text font-size="10" x="110" text-anchor="end" fill="black" font-family="Helvetica Neue, Helvetica, Arial, sans-serif">221 </text><text font-size="10" x="110" text-anchor="start" fill="black" font-family="Helvetica Neue, Helvetica, Arial, sans-serif">estimated rows</text></g></g><g class="operator" transform="translate(0, -738.619384765625)"><rect class="background" width="220" height="170.06152475095516" rx="4" ry="4" fill="rgb(255, 255, 255)"/><g class="header" pointer-events="all"><path class="banner" d="M 216 0 A 4 4 0 0 1 220 4 L 220 14 A 4 4 0 0 1 220 18 L 0 18 A 4 4 0 0 1 0 14 L 0 4 A 4 4 0 0 1 4 0 Z" style="fill: rgb(158, 202, 225);"/><path class="expand" fill="#000000" d="M -5 -10 L 8.66 0 L -5 10 Z" transform="translate(9, 9) rotate(90) scale(0.5,0.5)"/><text class="title" font-size="11" font-family="Helvetica Neue, Helvetica, Arial, sans-serif" x="18" y="13" fill="#000000">NodeIndexScan@neo4j</text></g><path class="cost" fill="#F25A29" d="M 0 148 L 220 148 L 220 166.06152475095516 A 4 4 0 0 1 216 170.06152475095516 L 4 170.06152475095516 A 4 4 0 0 1 0 166.06152475095516 Z"/><text class="cost" font-size="10" font-family="Helvetica Neue, Helvetica, Arial, sans-serif" fill="white" x="110" text-anchor="end" y="162">443 </text><text class="cost" font-size="10" font-family="Helvetica Neue, Helvetica, Arial, sans-serif" fill="white" x="110" text-anchor="start" y="162">db hits</text><rect class="b-outline" width="220" rx="4" ry="4" fill="none" stroke-width="1" style="stroke: rgb(111, 141, 158);" height="170.06152475095516"/><g class="detail identifiers" transform="translate(0, 32)" font-family="'Fira Code',Monaco,'Courier New',Terminal,monospace"><text font-size="10" x="3" text-anchor="start" fill="black" font-family="Helvetica Neue, Helvetica, Arial, sans-serif">n</text></g><g class="detail padding" transform="translate(0, 46)" font-family="'Helvetica Neue',Helvetica,Arial,sans-serif"><text font-size="10" x="3" text-anchor="start" fill="black" font-family="Helvetica Neue, Helvetica, Arial, sans-serif"/><path class="divider" visibility="visible" d="M 0 -6 L 220 -6" stroke="#DFE1E3"/></g><g class="detail expression" transform="translate(0, 52)" font-family="'Fira Code',Monaco,'Courier New',Terminal,monospace"><text font-size="10" x="3" text-anchor="start" fill="black" font-family="Helvetica Neue, Helvetica, Arial, sans-serif">BTREE INDEX n:ActorAndDirector(name</text></g><g class="detail expression" transform="translate(0, 66)" font-family="'Fira Code',Monaco,'Courier New',Terminal,monospace"><text font-size="10" x="3" text-anchor="start" fill="black" font-family="Helvetica Neue, Helvetica, Arial, sans-serif">) WHERE name IS NOT NULL, cache[n.</text></g><g class="detail expression" transform="translate(0, 80)" font-family="'Fira Code',Monaco,'Courier New',Terminal,monospace"><text font-size="10" x="3" text-anchor="start" fill="black" font-family="Helvetica Neue, Helvetica, Arial, sans-serif">name]</text></g><g class="detail padding" transform="translate(0, 94)" font-family="'Helvetica Neue',Helvetica,Arial,sans-serif"><text font-size="10" x="3" text-anchor="start" fill="black" font-family="Helvetica Neue, Helvetica, Arial, sans-serif"/><path class="divider" visibility="visible" d="M 0 -6 L 220 -6" stroke="#DFE1E3"/></g><g class="detail operator-memory" transform="translate(0, 100)" font-family="'Helvetica Neue',Helvetica,Arial,sans-serif"><text font-size="10" x="110" text-anchor="end" fill="black" font-family="Helvetica Neue, Helvetica, Arial, sans-serif">112 </text><text font-size="10" x="110" text-anchor="start" fill="black" font-family="Helvetica Neue, Helvetica, Arial, sans-serif">memory (bytes)</text></g><g class="detail pagecache-hits" transform="translate(0, 114)" font-family="'Helvetica Neue',Helvetica,Arial,sans-serif"><text font-size="10" x="110" text-anchor="end" fill="black" font-family="Helvetica Neue, Helvetica, Arial, sans-serif">1,210 </text><text font-size="10" x="110" text-anchor="start" fill="black" font-family="Helvetica Neue, Helvetica, Arial, sans-serif">pagecache hits</text></g><g class="detail pagecache-misses" transform="translate(0, 128)" font-family="'Helvetica Neue',Helvetica,Arial,sans-serif"><text font-size="10" x="110" text-anchor="end" fill="black" font-family="Helvetica Neue, Helvetica, Arial, sans-serif">3 </text><text font-size="10" x="110" text-anchor="start" fill="black" font-family="Helvetica Neue, Helvetica, Arial, sans-serif">pagecache misses</text></g><g class="detail estimated-rows" transform="translate(0, 142)" font-family="'Helvetica Neue',Helvetica,Arial,sans-serif"><text font-size="10" x="110" text-anchor="end" fill="black" font-family="Helvetica Neue, Helvetica, Arial, sans-serif">442 </text><text font-size="10" x="110" text-anchor="start" fill="black" font-family="Helvetica Neue, Helvetica, Arial, sans-serif">estimated rows</text></g></g></g></svg>