<svg xmlns="http://www.w3.org/2000/svg" width="221.07180786132812" height="689.5271606445312" viewBox="-0.5358984470367432 -739.5271606445312 221.07180786132812 689.5271606445312"><title>Neo4j Graph Visualization</title><desc>Created using Neo4j (http://www.neo4j.com/)</desc><g class="layer links"><g class="link"><path fill="#DFE1E3" d="M 142.30344208368106 -589.4268325162461 C 142.30344208368106 -580.3423268254356 142.3034420836811 -580.3423268254356 142.3034420836811 -539.4268325162461 L 77.69655791631894 -539.4268325162461 C 77.69655791631894 -548.5113382070566 77.69655791631894 -548.5113382070566 77.69655791631894 -589.4268325162461 Z"/><text font-size="10" font-family="Helvetica Neue, Helvetica, Arial, sans-serif" fill="rgb(107, 174, 214)" x="110" y="-575.4268325162461" text-anchor="end">4,091 </text><text font-size="10" font-family="Helvetica Neue, Helvetica, Arial, sans-serif" fill="rgb(107, 174, 214)" x="110" y="-575.4268325162461" text-anchor="start">rows</text></g><g class="link"><path fill="#DFE1E3" d="M 133.93549896059994 -416 C 133.93549896059994 -406.2378118998016 133.93549896059994 -406.2378118998016 133.93549896059994 -366 L 86.06450103940006 -366 C 86.06450103940006 -375.7621881001984 86.06450103940006 -375.7621881001984 86.06450103940006 -416 Z"/><text font-size="10" font-family="Helvetica Neue, Helvetica, Arial, sans-serif" fill="rgb(107, 174, 214)" x="110" y="-402" text-anchor="end">442 </text><text font-size="10" font-family="Helvetica Neue, Helvetica, Arial, sans-serif" fill="rgb(107, 174, 214)" x="110" y="-402" text-anchor="start">rows</text></g><g class="link"><path fill="#DFE1E3" d="M 133.93549896059994 -274 C 133.93549896059994 -264.2378118998016 133.93549896059994 -264.2378118998016 133.93549896059994 -224 L 86.06450103940006 -224 C 86.06450103940006 -233.7621881001984 86.06450103940006 -233.7621881001984 86.06450103940006 -274 Z"/><text font-size="10" font-family="Helvetica Neue, Helvetica, Arial, sans-serif" fill="rgb(107, 174, 214)" x="110" y="-260" text-anchor="end">442 </text><text font-size="10" font-family="Helvetica Neue, Helvetica, Arial, sans-serif" fill="rgb(107, 174, 214)" x="110" y="-260" text-anchor="start">rows</text></g><g class="link"><path fill="#DFE1E3" d="M 133.93549896059994 -118 C 133.93549896059994 -108.23781189980161 133.93549896059994 -108.23781189980161 133.93549896059994 -68 L 86.06450103940006 -68 C 86.06450103940006 -77.76218810019839 86.06450103940006 -77.76218810019839 86.06450103940006 -118 Z"/><text font-size="10" font-family="Helvetica Neue, Helvetica, Arial, sans-serif" fill="rgb(107, 174, 214)" x="110" y="-104" text-anchor="end">442 </text><text font-size="10" font-family="Helvetica Neue, Helvetica, Arial, sans-serif" fill="rgb(107, 174, 214)" x="110" y="-104" text-anchor="start">rows</text></g></g><g class="layer operators"><g class="operator" transform="translate(0, -68)"><rect class="background" width="220" height="18" rx="4" ry="4" fill="rgb(255, 255, 255)"/><g class="header" pointer-events="all"><path class="banner" d="M 216 0 A 4 4 0 0 1 220 4 L 220 14 A 4 4 0 0 1 216 18 L 4 18 A 4 4 0 0 1 0 14 L 0 4 A 4 4 0 0 1 4 0 Z" style="fill: rgb(198, 219, 239);"/><text class="title" font-size="11" font-family="Helvetica Neue, Helvetica, Arial, sans-serif" x="18" y="13" fill="#000000">Result</text></g><path class="cost" fill="#F25A29" d="M 216 18 A 4 4 0 0 1 216 18 L 4 18 A 4 4 0 0 1 4 18 Z"/><rect class="b-outline" width="220" rx="4" ry="4" fill="none" stroke-width="1" style="stroke: rgb(139, 153, 167);" height="18"/></g><g class="operator" transform="translate(0, -224)"><rect class="background" width="220" height="106" rx="4" ry="4" fill="rgb(255, 255, 255)"/><g class="header" pointer-events="all"><path class="banner" d="M 216 0 A 4 4 0 0 1 220 4 L 220 14 A 4 4 0 0 1 220 18 L 0 18 A 4 4 0 0 1 0 14 L 0 4 A 4 4 0 0 1 4 0 Z" style="fill: rgb(198, 219, 239);"/><path class="expand" fill="#000000" d="M -5 -10 L 8.66 0 L -5 10 Z" transform="translate(9, 9) rotate(90) scale(0.5,0.5)"/><text class="title" font-size="11" font-family="Helvetica Neue, Helvetica, Arial, sans-serif" x="18" y="13" fill="#000000">ProduceResults@neo4j</text></g><path class="cost" fill="#F25A29" d="M 216 106 A 4 4 0 0 1 216 106 L 4 106 A 4 4 0 0 1 4 106 Z"/><rect class="b-outline" width="220" rx="4" ry="4" fill="none" stroke-width="1" style="stroke: rgb(139, 153, 167);" height="106"/><g class="detail identifiers" transform="translate(0, 32)" font-family="'Fira Code',Monaco,'Courier New',Terminal,monospace"><text font-size="10" x="3" text-anchor="start" fill="black" font-family="Helvetica Neue, Helvetica, Arial, sans-serif">n, `n.name`</text></g><g class="detail padding" transform="translate(0, 46)" font-family="'Helvetica Neue',Helvetica,Arial,sans-serif"><text font-size="10" x="3" text-anchor="start" fill="black" font-family="Helvetica Neue, Helvetica, Arial, sans-serif"/><path class="divider" visibility="visible" d="M 0 -6 L 220 -6" stroke="#DFE1E3"/></g><g class="detail expression" transform="translate(0, 52)" font-family="'Fira Code',Monaco,'Courier New',Terminal,monospace"><text font-size="10" x="3" text-anchor="start" fill="black" font-family="Helvetica Neue, Helvetica, Arial, sans-serif">`n.name`</text></g><g class="detail padding" transform="translate(0, 66)" font-family="'Helvetica Neue',Helvetica,Arial,sans-serif"><text font-size="10" x="3" text-anchor="start" fill="black" font-family="Helvetica Neue, Helvetica, Arial, sans-serif"/><path class="divider" visibility="visible" d="M 0 -6 L 220 -6" stroke="#DFE1E3"/></g><g class="detail global-memory" transform="translate(0, 72)" font-family="'Helvetica Neue',Helvetica,Arial,sans-serif"><text font-size="10" x="110" text-anchor="end" fill="black" font-family="Helvetica Neue, Helvetica, Arial, sans-serif">176 </text><text font-size="10" x="110" text-anchor="start" fill="black" font-family="Helvetica Neue, Helvetica, Arial, sans-serif">total memory (bytes)</text></g><g class="detail estimated-rows" transform="translate(0, 86)" font-family="'Helvetica Neue',Helvetica,Arial,sans-serif"><text font-size="10" x="110" text-anchor="end" fill="black" font-family="Helvetica Neue, Helvetica, Arial, sans-serif">547 </text><text font-size="10" x="110" text-anchor="start" fill="black" font-family="Helvetica Neue, Helvetica, Arial, sans-serif">estimated rows</text></g><g class="detail db-hits" transform="translate(0, 100)" font-family="'Helvetica Neue',Helvetica,Arial,sans-serif"><text font-size="10" x="110" text-anchor="end" fill="black" font-family="Helvetica Neue, Helvetica, Arial, sans-serif">0 </text><text font-size="10" x="110" text-anchor="start" fill="black" font-family="Helvetica Neue, Helvetica, Arial, sans-serif">db hits</text></g></g><g class="operator" transform="translate(0, -366)"><rect class="background" width="220" height="92" rx="4" ry="4" fill="rgb(255, 255, 255)"/><g class="header" pointer-events="all"><path class="banner" d="M 216 0 A 4 4 0 0 1 220 4 L 220 14 A 4 4 0 0 1 220 18 L 0 18 A 4 4 0 0 1 0 14 L 0 4 A 4 4 0 0 1 4 0 Z" style="fill: rgb(107, 174, 214);"/><path class="expand" fill="#FFFFFF" d="M -5 -10 L 8.66 0 L -5 10 Z" transform="translate(9, 9) rotate(90) scale(0.5,0.5)"/><text class="title" font-size="11" font-family="Helvetica Neue, Helvetica, Arial, sans-serif" x="18" y="13" fill="#FFFFFF">Projection@neo4j</text></g><path class="cost" fill="#F25A29" d="M 216 92 A 4 4 0 0 1 216 92 L 4 92 A 4 4 0 0 1 4 92 Z"/><rect class="b-outline" width="220" rx="4" ry="4" fill="none" stroke-width="1" style="stroke: rgb(75, 122, 150);" height="92"/><g class="detail identifiers" transform="translate(0, 32)" font-family="'Fira Code',Monaco,'Courier New',Terminal,monospace"><text font-size="10" x="3" text-anchor="start" fill="black" font-family="Helvetica Neue, Helvetica, Arial, sans-serif">n, `n.name`</text></g><g class="detail padding" transform="translate(0, 46)" font-family="'Helvetica Neue',Helvetica,Arial,sans-serif"><text font-size="10" x="3" text-anchor="start" fill="black" font-family="Helvetica Neue, Helvetica, Arial, sans-serif"/><path class="divider" visibility="visible" d="M 0 -6 L 220 -6" stroke="#DFE1E3"/></g><g class="detail expression" transform="translate(0, 52)" font-family="'Fira Code',Monaco,'Courier New',Terminal,monospace"><text font-size="10" x="3" text-anchor="start" fill="black" font-family="Helvetica Neue, Helvetica, Arial, sans-serif">cache[n.name] AS `n.name`</text></g><g class="detail padding" transform="translate(0, 66)" font-family="'Helvetica Neue',Helvetica,Arial,sans-serif"><text font-size="10" x="3" text-anchor="start" fill="black" font-family="Helvetica Neue, Helvetica, Arial, sans-serif"/><path class="divider" visibility="visible" d="M 0 -6 L 220 -6" stroke="#DFE1E3"/></g><g class="detail estimated-rows" transform="translate(0, 72)" font-family="'Helvetica Neue',Helvetica,Arial,sans-serif"><text font-size="10" x="110" text-anchor="end" fill="black" font-family="Helvetica Neue, Helvetica, Arial, sans-serif">547 </text><text font-size="10" x="110" text-anchor="start" fill="black" font-family="Helvetica Neue, Helvetica, Arial, sans-serif">estimated rows</text></g><g class="detail db-hits" transform="translate(0, 86)" font-family="'Helvetica Neue',Helvetica,Arial,sans-serif"><text font-size="10" x="110" text-anchor="end" fill="black" font-family="Helvetica Neue, Helvetica, Arial, sans-serif">0 </text><text font-size="10" x="110" text-anchor="start" fill="black" font-family="Helvetica Neue, Helvetica, Arial, sans-serif">db hits</text></g></g><g class="operator" transform="translate(0, -539.4268188476562)"><rect class="background" width="220" height="123.42683251624611" rx="4" ry="4" fill="rgb(255, 255, 255)"/><g class="header" pointer-events="all"><path class="banner" d="M 216 0 A 4 4 0 0 1 220 4 L 220 14 A 4 4 0 0 1 220 18 L 0 18 A 4 4 0 0 1 0 14 L 0 4 A 4 4 0 0 1 4 0 Z" style="fill: rgb(33, 113, 181);"/><path class="expand" fill="#FFFFFF" d="M -5 -10 L 8.66 0 L -5 10 Z" transform="translate(9, 9) rotate(90) scale(0.5,0.5)"/><text class="title" font-size="11" font-family="Helvetica Neue, Helvetica, Arial, sans-serif" x="18" y="13" fill="#FFFFFF">Filter@neo4j</text></g><path class="cost" fill="#F25A29" d="M 0 92 L 220 92 L 220 119.42683251624611 A 4 4 0 0 1 216 123.42683251624611 L 4 123.42683251624611 A 4 4 0 0 1 0 119.42683251624611 Z"/><text class="cost" font-size="10" font-family="Helvetica Neue, Helvetica, Arial, sans-serif" fill="white" x="110" text-anchor="end" y="106">5,904 </text><text class="cost" font-size="10" font-family="Helvetica Neue, Helvetica, Arial, sans-serif" fill="white" x="110" text-anchor="start" y="106">db hits</text><rect class="b-outline" width="220" rx="4" ry="4" fill="none" stroke-width="1" style="stroke: rgb(23, 79, 127);" height="123.42683251624611"/><g class="detail identifiers" transform="translate(0, 32)" font-family="'Fira Code',Monaco,'Courier New',Terminal,monospace"><text font-size="10" x="3" text-anchor="start" fill="black" font-family="Helvetica Neue, Helvetica, Arial, sans-serif">n</text></g><g class="detail padding" transform="translate(0, 46)" font-family="'Helvetica Neue',Helvetica,Arial,sans-serif"><text font-size="10" x="3" text-anchor="start" fill="black" font-family="Helvetica Neue, Helvetica, Arial, sans-serif"/><path class="divider" visibility="visible" d="M 0 -6 L 220 -6" stroke="#DFE1E3"/></g><g class="detail expression" transform="translate(0, 52)" font-family="'Fira Code',Monaco,'Courier New',Terminal,monospace"><text font-size="10" x="3" text-anchor="start" fill="black" font-family="Helvetica Neue, Helvetica, Arial, sans-serif">n:Actor AND n.bornIn IS NOT NULL </text></g><g class="detail expression" transform="translate(0, 66)" font-family="'Fira Code',Monaco,'Courier New',Terminal,monospace"><text font-size="10" x="3" text-anchor="start" fill="black" font-family="Helvetica Neue, Helvetica, Arial, sans-serif">AND cache[n.name] IS NOT NULL</text></g><g class="detail padding" transform="translate(0, 80)" font-family="'Helvetica Neue',Helvetica,Arial,sans-serif"><text font-size="10" x="3" text-anchor="start" fill="black" font-family="Helvetica Neue, Helvetica, Arial, sans-serif"/><path class="divider" visibility="visible" d="M 0 -6 L 220 -6" stroke="#DFE1E3"/></g><g class="detail estimated-rows" transform="translate(0, 86)" font-family="'Helvetica Neue',Helvetica,Arial,sans-serif"><text font-size="10" x="110" text-anchor="end" fill="black" font-family="Helvetica Neue, Helvetica, Arial, sans-serif">547 </text><text font-size="10" x="110" text-anchor="start" fill="black" font-family="Helvetica Neue, Helvetica, Arial, sans-serif">estimated rows</text></g></g><g class="operator" transform="translate(0, -739.5271606445312)"><rect class="background" width="220" height="150.10034787204393" rx="4" ry="4" fill="rgb(255, 255, 255)"/><g class="header" pointer-events="all"><path class="banner" d="M 216 0 A 4 4 0 0 1 220 4 L 220 14 A 4 4 0 0 1 220 18 L 0 18 A 4 4 0 0 1 0 14 L 0 4 A 4 4 0 0 1 4 0 Z" style="fill: rgb(158, 202, 225);"/><path class="expand" fill="#000000" d="M -5 -10 L 8.66 0 L -5 10 Z" transform="translate(9, 9) rotate(90) scale(0.5,0.5)"/><text class="title" font-size="11" font-family="Helvetica Neue, Helvetica, Arial, sans-serif" x="18" y="13" fill="#000000">NodeByLabelScan@neo4j</text></g><path class="cost" fill="#F25A29" d="M 0 120.00000000000001 L 220 120.00000000000001 L 220 146.10034787204393 A 4 4 0 0 1 216 150.10034787204393 L 4 150.10034787204393 A 4 4 0 0 1 0 146.10034787204393 Z"/><text class="cost" font-size="10" font-family="Helvetica Neue, Helvetica, Arial, sans-serif" fill="white" x="110" text-anchor="end" y="134">4,092 </text><text class="cost" font-size="10" font-family="Helvetica Neue, Helvetica, Arial, sans-serif" fill="white" x="110" text-anchor="start" y="134">db hits</text><rect class="b-outline" width="220" rx="4" ry="4" fill="none" stroke-width="1" style="stroke: rgb(111, 141, 158);" height="150.10034787204393"/><g class="detail identifiers" transform="translate(0, 32)" font-family="'Fira Code',Monaco,'Courier New',Terminal,monospace"><text font-size="10" x="3" text-anchor="start" fill="black" font-family="Helvetica Neue, Helvetica, Arial, sans-serif">n</text></g><g class="detail padding" transform="translate(0, 46)" font-family="'Helvetica Neue',Helvetica,Arial,sans-serif"><text font-size="10" x="3" text-anchor="start" fill="black" font-family="Helvetica Neue, Helvetica, Arial, sans-serif"/><path class="divider" visibility="visible" d="M 0 -6 L 220 -6" stroke="#DFE1E3"/></g><g class="detail expression" transform="translate(0, 52)" font-family="'Fira Code',Monaco,'Courier New',Terminal,monospace"><text font-size="10" x="3" text-anchor="start" fill="black" font-family="Helvetica Neue, Helvetica, Arial, sans-serif">n:Director</text></g><g class="detail padding" transform="translate(0, 66)" font-family="'Helvetica Neue',Helvetica,Arial,sans-serif"><text font-size="10" x="3" text-anchor="start" fill="black" font-family="Helvetica Neue, Helvetica, Arial, sans-serif"/><path class="divider" visibility="visible" d="M 0 -6 L 220 -6" stroke="#DFE1E3"/></g><g class="detail operator-memory" transform="translate(0, 72)" font-family="'Helvetica Neue',Helvetica,Arial,sans-serif"><text font-size="10" x="110" text-anchor="end" fill="black" font-family="Helvetica Neue, Helvetica, Arial, sans-serif">112 </text><text font-size="10" x="110" text-anchor="start" fill="black" font-family="Helvetica Neue, Helvetica, Arial, sans-serif">memory (bytes)</text></g><g class="detail pagecache-hits" transform="translate(0, 86)" font-family="'Helvetica Neue',Helvetica,Arial,sans-serif"><text font-size="10" x="110" text-anchor="end" fill="black" font-family="Helvetica Neue, Helvetica, Arial, sans-serif">2,299 </text><text font-size="10" x="110" text-anchor="start" fill="black" font-family="Helvetica Neue, Helvetica, Arial, sans-serif">pagecache hits</text></g><g class="detail pagecache-misses" transform="translate(0, 100)" font-family="'Helvetica Neue',Helvetica,Arial,sans-serif"><text font-size="10" x="110" text-anchor="end" fill="black" font-family="Helvetica Neue, Helvetica, Arial, sans-serif">0 </text><text font-size="10" x="110" text-anchor="start" fill="black" font-family="Helvetica Neue, Helvetica, Arial, sans-serif">pagecache misses</text></g><g class="detail estimated-rows" transform="translate(0, 114)" font-family="'Helvetica Neue',Helvetica,Arial,sans-serif"><text font-size="10" x="110" text-anchor="end" fill="black" font-family="Helvetica Neue, Helvetica, Arial, sans-serif">4,091 </text><text font-size="10" x="110" text-anchor="start" fill="black" font-family="Helvetica Neue, Helvetica, Arial, sans-serif">estimated rows</text></g></g></g></svg>