<svg xmlns="http://www.w3.org/2000/svg" width="221.07180786132812" height="797.9280395507812" viewBox="-0.5358984470367432 -847.9280395507812 221.07180786132812 797.9280395507812"><title>Neo4j Graph Visualization</title><desc>Created using Neo4j (http://www.neo4j.com/)</desc><g class="layer links"><g class="link"><path fill="#DFE1E3" d="M 113.60892662908783 -681.9520209119944 C 113.60892662908783 -659.2495349610956 113.60892662908785 -659.2495349610956 113.60892662908785 -631.9520209119944 L 106.39107337091217 -631.9520209119944 C 106.39107337091217 -654.6545068628932 106.39107337091217 -654.6545068628932 106.39107337091217 -681.9520209119944 Z"/><text font-size="10" font-family="Helvetica Neue, Helvetica, Arial, sans-serif" fill="rgb(107, 174, 214)" x="110" y="-667.9520209119944" text-anchor="end">1 </text><text font-size="10" font-family="Helvetica Neue, Helvetica, Arial, sans-serif" fill="rgb(107, 174, 214)" x="110" y="-667.9520209119944" text-anchor="start">row</text></g><g class="link"><path fill="#DFE1E3" d="M 113.60892662908783 -521.9760104559972 C 113.60892662908783 -499.2735245050984 113.60892662908785 -499.2735245050984 113.60892662908785 -471.9760104559972 L 106.39107337091217 -471.9760104559972 C 106.39107337091217 -494.678496406896 106.39107337091217 -494.678496406896 106.39107337091217 -521.9760104559972 Z"/><text font-size="10" font-family="Helvetica Neue, Helvetica, Arial, sans-serif" fill="rgb(107, 174, 214)" x="110" y="-507.9760104559972" text-anchor="end">1 </text><text font-size="10" font-family="Helvetica Neue, Helvetica, Arial, sans-serif" fill="rgb(107, 174, 214)" x="110" y="-507.9760104559972" text-anchor="start">row</text></g><g class="link"><path fill="#DFE1E3" d="M 113.60892662908783 -376 C 113.60892662908783 -353.2975140491012 113.60892662908785 -353.2975140491012 113.60892662908785 -326 L 106.39107337091217 -326 C 106.39107337091217 -348.7024859508988 106.39107337091217 -348.7024859508988 106.39107337091217 -376 Z"/><text font-size="10" font-family="Helvetica Neue, Helvetica, Arial, sans-serif" fill="rgb(107, 174, 214)" x="110" y="-362" text-anchor="end">1 </text><text font-size="10" font-family="Helvetica Neue, Helvetica, Arial, sans-serif" fill="rgb(107, 174, 214)" x="110" y="-362" text-anchor="start">row</text></g><g class="link"><path fill="#DFE1E3" d="M 111 -254 C 111 -229.6366197723676 111 -229.6366197723676 111 -204 L 109 -204 C 109 -228.3633802276324 109 -228.3633802276324 109 -254 Z"/><text font-size="10" font-family="Helvetica Neue, Helvetica, Arial, sans-serif" fill="rgb(107, 174, 214)" x="110" y="-240" text-anchor="end">0 </text><text font-size="10" font-family="Helvetica Neue, Helvetica, Arial, sans-serif" fill="rgb(107, 174, 214)" x="110" y="-240" text-anchor="start">rows</text></g><g class="link"><path fill="#DFE1E3" d="M 111 -118 C 111 -93.63661977236758 111 -93.63661977236758 111 -68 L 109 -68 C 109 -92.36338022763242 109 -92.36338022763242 109 -118 Z"/><text font-size="10" font-family="Helvetica Neue, Helvetica, Arial, sans-serif" fill="rgb(107, 174, 214)" x="110" y="-104" text-anchor="end">0 </text><text font-size="10" font-family="Helvetica Neue, Helvetica, Arial, sans-serif" fill="rgb(107, 174, 214)" x="110" y="-104" text-anchor="start">rows</text></g></g><g class="layer operators"><g class="operator" transform="translate(0, -68)"><rect class="background" width="220" height="18" rx="4" ry="4" fill="rgb(255, 255, 255)"/><g class="header" pointer-events="all"><path class="banner" d="M 216 0 A 4 4 0 0 1 220 4 L 220 14 A 4 4 0 0 1 216 18 L 4 18 A 4 4 0 0 1 0 14 L 0 4 A 4 4 0 0 1 4 0 Z" style="fill: rgb(198, 219, 239);"/><text class="title" font-size="11" font-family="Helvetica Neue, Helvetica, Arial, sans-serif" x="18" y="13" fill="#000000">Result</text></g><path class="cost" fill="#F25A29" d="M 216 18 A 4 4 0 0 1 216 18 L 4 18 A 4 4 0 0 1 4 18 Z"/><rect class="b-outline" width="220" rx="4" ry="4" fill="none" stroke-width="1" style="stroke: rgb(139, 153, 167);" height="18"/></g><g class="operator" transform="translate(0, -204)"><rect class="background" width="220" height="86" rx="4" ry="4" fill="rgb(255, 255, 255)"/><g class="header" pointer-events="all"><path class="banner" d="M 216 0 A 4 4 0 0 1 220 4 L 220 14 A 4 4 0 0 1 220 18 L 0 18 A 4 4 0 0 1 0 14 L 0 4 A 4 4 0 0 1 4 0 Z" style="fill: rgb(198, 219, 239);"/><path class="expand" fill="#000000" d="M -5 -10 L 8.66 0 L -5 10 Z" transform="translate(9, 9) rotate(90) scale(0.5,0.5)"/><text class="title" font-size="11" font-family="Helvetica Neue, Helvetica, Arial, sans-serif" x="18" y="13" fill="#000000">ProduceResults@neo4j</text></g><path class="cost" fill="#F25A29" d="M 216 86 A 4 4 0 0 1 216 86 L 4 86 A 4 4 0 0 1 4 86 Z"/><rect class="b-outline" width="220" rx="4" ry="4" fill="none" stroke-width="1" style="stroke: rgb(139, 153, 167);" height="86"/><g class="detail identifiers" transform="translate(0, 32)" font-family="'Fira Code',Monaco,'Courier New',Terminal,monospace"><text font-size="10" x="3" text-anchor="start" fill="black" font-family="Helvetica Neue, Helvetica, Arial, sans-serif">n</text></g><g class="detail padding" transform="translate(0, 46)" font-family="'Helvetica Neue',Helvetica,Arial,sans-serif"><text font-size="10" x="3" text-anchor="start" fill="black" font-family="Helvetica Neue, Helvetica, Arial, sans-serif"/><path class="divider" visibility="visible" d="M 0 -6 L 220 -6" stroke="#DFE1E3"/></g><g class="detail global-memory" transform="translate(0, 52)" font-family="'Helvetica Neue',Helvetica,Arial,sans-serif"><text font-size="10" x="110" text-anchor="end" fill="black" font-family="Helvetica Neue, Helvetica, Arial, sans-serif">192 </text><text font-size="10" x="110" text-anchor="start" fill="black" font-family="Helvetica Neue, Helvetica, Arial, sans-serif">total memory (bytes)</text></g><g class="detail estimated-rows" transform="translate(0, 66)" font-family="'Helvetica Neue',Helvetica,Arial,sans-serif"><text font-size="10" x="110" text-anchor="end" fill="black" font-family="Helvetica Neue, Helvetica, Arial, sans-serif">1 </text><text font-size="10" x="110" text-anchor="start" fill="black" font-family="Helvetica Neue, Helvetica, Arial, sans-serif">estimated rows</text></g><g class="detail db-hits" transform="translate(0, 80)" font-family="'Helvetica Neue',Helvetica,Arial,sans-serif"><text font-size="10" x="110" text-anchor="end" fill="black" font-family="Helvetica Neue, Helvetica, Arial, sans-serif">0 </text><text font-size="10" x="110" text-anchor="start" fill="black" font-family="Helvetica Neue, Helvetica, Arial, sans-serif">db hits</text></g></g><g class="operator" transform="translate(0, -326)"><rect class="background" width="220" height="72" rx="4" ry="4" fill="rgb(255, 255, 255)"/><g class="header" pointer-events="all"><path class="banner" d="M 216 0 A 4 4 0 0 1 220 4 L 220 14 A 4 4 0 0 1 220 18 L 0 18 A 4 4 0 0 1 0 14 L 0 4 A 4 4 0 0 1 4 0 Z" style="fill: rgb(198, 219, 239);"/><path class="expand" fill="#000000" d="M -5 -10 L 8.66 0 L -5 10 Z" transform="translate(9, 9) rotate(90) scale(0.5,0.5)"/><text class="title" font-size="11" font-family="Helvetica Neue, Helvetica, Arial, sans-serif" x="18" y="13" fill="#000000">EmptyResult@neo4j</text></g><path class="cost" fill="#F25A29" d="M 216 72 A 4 4 0 0 1 216 72 L 4 72 A 4 4 0 0 1 4 72 Z"/><rect class="b-outline" width="220" rx="4" ry="4" fill="none" stroke-width="1" style="stroke: rgb(139, 153, 167);" height="72"/><g class="detail identifiers" transform="translate(0, 32)" font-family="'Fira Code',Monaco,'Courier New',Terminal,monospace"><text font-size="10" x="3" text-anchor="start" fill="black" font-family="Helvetica Neue, Helvetica, Arial, sans-serif">n</text></g><g class="detail padding" transform="translate(0, 46)" font-family="'Helvetica Neue',Helvetica,Arial,sans-serif"><text font-size="10" x="3" text-anchor="start" fill="black" font-family="Helvetica Neue, Helvetica, Arial, sans-serif"/><path class="divider" visibility="visible" d="M 0 -6 L 220 -6" stroke="#DFE1E3"/></g><g class="detail estimated-rows" transform="translate(0, 52)" font-family="'Helvetica Neue',Helvetica,Arial,sans-serif"><text font-size="10" x="110" text-anchor="end" fill="black" font-family="Helvetica Neue, Helvetica, Arial, sans-serif">1 </text><text font-size="10" x="110" text-anchor="start" fill="black" font-family="Helvetica Neue, Helvetica, Arial, sans-serif">estimated rows</text></g><g class="detail db-hits" transform="translate(0, 66)" font-family="'Helvetica Neue',Helvetica,Arial,sans-serif"><text font-size="10" x="110" text-anchor="end" fill="black" font-family="Helvetica Neue, Helvetica, Arial, sans-serif">0 </text><text font-size="10" x="110" text-anchor="start" fill="black" font-family="Helvetica Neue, Helvetica, Arial, sans-serif">db hits</text></g></g><g class="operator" transform="translate(0, -471.97601318359375)"><rect class="background" width="220" height="95.97601045599718" rx="4" ry="4" fill="rgb(255, 255, 255)"/><g class="header" pointer-events="all"><path class="banner" d="M 216 0 A 4 4 0 0 1 220 4 L 220 14 A 4 4 0 0 1 220 18 L 0 18 A 4 4 0 0 1 0 14 L 0 4 A 4 4 0 0 1 4 0 Z" style="fill: rgb(66, 146, 198);"/><path class="expand" fill="#FFFFFF" d="M -5 -10 L 8.66 0 L -5 10 Z" transform="translate(9, 9) rotate(90) scale(0.5,0.5)"/><text class="title" font-size="11" font-family="Helvetica Neue, Helvetica, Arial, sans-serif" x="18" y="13" fill="#FFFFFF">SetProperty@neo4j</text></g><path class="cost" fill="#F25A29" d="M 219.99992806207544 92 A 4 4 0 0 1 216 95.97601045599718 L 4 95.97601045599718 A 4 4 0 0 1 0.00007193792456616777 92 Z"/><rect class="b-outline" width="220" rx="4" ry="4" fill="none" stroke-width="1" style="stroke: rgb(46, 102, 139);" height="95.97601045599718"/><g class="detail identifiers" transform="translate(0, 32)" font-family="'Fira Code',Monaco,'Courier New',Terminal,monospace"><text font-size="10" x="3" text-anchor="start" fill="black" font-family="Helvetica Neue, Helvetica, Arial, sans-serif">n</text></g><g class="detail padding" transform="translate(0, 46)" font-family="'Helvetica Neue',Helvetica,Arial,sans-serif"><text font-size="10" x="3" text-anchor="start" fill="black" font-family="Helvetica Neue, Helvetica, Arial, sans-serif"/><path class="divider" visibility="visible" d="M 0 -6 L 220 -6" stroke="#DFE1E3"/></g><g class="detail expression" transform="translate(0, 52)" font-family="'Fira Code',Monaco,'Courier New',Terminal,monospace"><text font-size="10" x="3" text-anchor="start" fill="black" font-family="Helvetica Neue, Helvetica, Arial, sans-serif">n.languages = $autostring_1</text></g><g class="detail padding" transform="translate(0, 66)" font-family="'Helvetica Neue',Helvetica,Arial,sans-serif"><text font-size="10" x="3" text-anchor="start" fill="black" font-family="Helvetica Neue, Helvetica, Arial, sans-serif"/><path class="divider" visibility="visible" d="M 0 -6 L 220 -6" stroke="#DFE1E3"/></g><g class="detail estimated-rows" transform="translate(0, 72)" font-family="'Helvetica Neue',Helvetica,Arial,sans-serif"><text font-size="10" x="110" text-anchor="end" fill="black" font-family="Helvetica Neue, Helvetica, Arial, sans-serif">1 </text><text font-size="10" x="110" text-anchor="start" fill="black" font-family="Helvetica Neue, Helvetica, Arial, sans-serif">estimated rows</text></g><g class="detail db-hits" transform="translate(0, 86)" font-family="'Helvetica Neue',Helvetica,Arial,sans-serif"><text font-size="10" x="110" text-anchor="end" fill="black" font-family="Helvetica Neue, Helvetica, Arial, sans-serif">2 </text><text font-size="10" x="110" text-anchor="start" fill="black" font-family="Helvetica Neue, Helvetica, Arial, sans-serif">db hits</text></g></g><g class="operator" transform="translate(0, -631.9520263671875)"><rect class="background" width="220" height="109.97601045599718" rx="4" ry="4" fill="rgb(255, 255, 255)"/><g class="header" pointer-events="all"><path class="banner" d="M 216 0 A 4 4 0 0 1 220 4 L 220 14 A 4 4 0 0 1 220 18 L 0 18 A 4 4 0 0 1 0 14 L 0 4 A 4 4 0 0 1 4 0 Z" style="fill: rgb(33, 113, 181);"/><path class="expand" fill="#FFFFFF" d="M -5 -10 L 8.66 0 L -5 10 Z" transform="translate(9, 9) rotate(90) scale(0.5,0.5)"/><text class="title" font-size="11" font-family="Helvetica Neue, Helvetica, Arial, sans-serif" x="18" y="13" fill="#FFFFFF">Filter@neo4j</text></g><path class="cost" fill="#F25A29" d="M 219.99992806207544 106 A 4 4 0 0 1 216 109.97601045599718 L 4 109.97601045599718 A 4 4 0 0 1 0.00007193792456616777 106 Z"/><rect class="b-outline" width="220" rx="4" ry="4" fill="none" stroke-width="1" style="stroke: rgb(23, 79, 127);" height="109.97601045599718"/><g class="detail identifiers" transform="translate(0, 32)" font-family="'Fira Code',Monaco,'Courier New',Terminal,monospace"><text font-size="10" x="3" text-anchor="start" fill="black" font-family="Helvetica Neue, Helvetica, Arial, sans-serif">n</text></g><g class="detail padding" transform="translate(0, 46)" font-family="'Helvetica Neue',Helvetica,Arial,sans-serif"><text font-size="10" x="3" text-anchor="start" fill="black" font-family="Helvetica Neue, Helvetica, Arial, sans-serif"/><path class="divider" visibility="visible" d="M 0 -6 L 220 -6" stroke="#DFE1E3"/></g><g class="detail expression" transform="translate(0, 52)" font-family="'Fira Code',Monaco,'Courier New',Terminal,monospace"><text font-size="10" x="3" text-anchor="start" fill="black" font-family="Helvetica Neue, Helvetica, Arial, sans-serif">cache[n.name] IS NOT NULL AND n.</text></g><g class="detail expression" transform="translate(0, 66)" font-family="'Fira Code',Monaco,'Courier New',Terminal,monospace"><text font-size="10" x="3" text-anchor="start" fill="black" font-family="Helvetica Neue, Helvetica, Arial, sans-serif">bornIn IS NOT NULL</text></g><g class="detail padding" transform="translate(0, 80)" font-family="'Helvetica Neue',Helvetica,Arial,sans-serif"><text font-size="10" x="3" text-anchor="start" fill="black" font-family="Helvetica Neue, Helvetica, Arial, sans-serif"/><path class="divider" visibility="visible" d="M 0 -6 L 220 -6" stroke="#DFE1E3"/></g><g class="detail estimated-rows" transform="translate(0, 86)" font-family="'Helvetica Neue',Helvetica,Arial,sans-serif"><text font-size="10" x="110" text-anchor="end" fill="black" font-family="Helvetica Neue, Helvetica, Arial, sans-serif">1 </text><text font-size="10" x="110" text-anchor="start" fill="black" font-family="Helvetica Neue, Helvetica, Arial, sans-serif">estimated rows</text></g><g class="detail db-hits" transform="translate(0, 100)" font-family="'Helvetica Neue',Helvetica,Arial,sans-serif"><text font-size="10" x="110" text-anchor="end" fill="black" font-family="Helvetica Neue, Helvetica, Arial, sans-serif">2 </text><text font-size="10" x="110" text-anchor="start" fill="black" font-family="Helvetica Neue, Helvetica, Arial, sans-serif">db hits</text></g></g><g class="operator" transform="translate(0, -847.9280395507812)"><rect class="background" width="220" height="165.9760104559972" rx="4" ry="4" fill="rgb(255, 255, 255)"/><g class="header" pointer-events="all"><path class="banner" d="M 216 0 A 4 4 0 0 1 220 4 L 220 14 A 4 4 0 0 1 220 18 L 0 18 A 4 4 0 0 1 0 14 L 0 4 A 4 4 0 0 1 4 0 Z" style="fill: rgb(158, 202, 225);"/><path class="expand" fill="#000000" d="M -5 -10 L 8.66 0 L -5 10 Z" transform="translate(9, 9) rotate(90) scale(0.5,0.5)"/><text class="title" font-size="11" font-family="Helvetica Neue, Helvetica, Arial, sans-serif" x="18" y="13" fill="#000000">NodeIndexSeek@neo4j</text></g><path class="cost" fill="#F25A29" d="M 219.99992806207544 162 A 4 4 0 0 1 216 165.9760104559972 L 4 165.9760104559972 A 4 4 0 0 1 0.00007193792456616777 162 Z"/><rect class="b-outline" width="220" rx="4" ry="4" fill="none" stroke-width="1" style="stroke: rgb(111, 141, 158);" height="165.9760104559972"/><g class="detail identifiers" transform="translate(0, 32)" font-family="'Fira Code',Monaco,'Courier New',Terminal,monospace"><text font-size="10" x="3" text-anchor="start" fill="black" font-family="Helvetica Neue, Helvetica, Arial, sans-serif">n</text></g><g class="detail padding" transform="translate(0, 46)" font-family="'Helvetica Neue',Helvetica,Arial,sans-serif"><text font-size="10" x="3" text-anchor="start" fill="black" font-family="Helvetica Neue, Helvetica, Arial, sans-serif"/><path class="divider" visibility="visible" d="M 0 -6 L 220 -6" stroke="#DFE1E3"/></g><g class="detail expression" transform="translate(0, 52)" font-family="'Fira Code',Monaco,'Courier New',Terminal,monospace"><text font-size="10" x="3" text-anchor="start" fill="black" font-family="Helvetica Neue, Helvetica, Arial, sans-serif">BTREE INDEX n:ActorAndDirector(name</text></g><g class="detail expression" transform="translate(0, 66)" font-family="'Fira Code',Monaco,'Courier New',Terminal,monospace"><text font-size="10" x="3" text-anchor="start" fill="black" font-family="Helvetica Neue, Helvetica, Arial, sans-serif">) WHERE name = $autostring_0, cache</text></g><g class="detail expression" transform="translate(0, 80)" font-family="'Fira Code',Monaco,'Courier New',Terminal,monospace"><text font-size="10" x="3" text-anchor="start" fill="black" font-family="Helvetica Neue, Helvetica, Arial, sans-serif">[n.name]</text></g><g class="detail padding" transform="translate(0, 94)" font-family="'Helvetica Neue',Helvetica,Arial,sans-serif"><text font-size="10" x="3" text-anchor="start" fill="black" font-family="Helvetica Neue, Helvetica, Arial, sans-serif"/><path class="divider" visibility="visible" d="M 0 -6 L 220 -6" stroke="#DFE1E3"/></g><g class="detail operator-memory" transform="translate(0, 100)" font-family="'Helvetica Neue',Helvetica,Arial,sans-serif"><text font-size="10" x="110" text-anchor="end" fill="black" font-family="Helvetica Neue, Helvetica, Arial, sans-serif">112 </text><text font-size="10" x="110" text-anchor="start" fill="black" font-family="Helvetica Neue, Helvetica, Arial, sans-serif">memory (bytes)</text></g><g class="detail pagecache-hits" transform="translate(0, 114)" font-family="'Helvetica Neue',Helvetica,Arial,sans-serif"><text font-size="10" x="110" text-anchor="end" fill="black" font-family="Helvetica Neue, Helvetica, Arial, sans-serif">6 </text><text font-size="10" x="110" text-anchor="start" fill="black" font-family="Helvetica Neue, Helvetica, Arial, sans-serif">pagecache hits</text></g><g class="detail pagecache-misses" transform="translate(0, 128)" font-family="'Helvetica Neue',Helvetica,Arial,sans-serif"><text font-size="10" x="110" text-anchor="end" fill="black" font-family="Helvetica Neue, Helvetica, Arial, sans-serif">2 </text><text font-size="10" x="110" text-anchor="start" fill="black" font-family="Helvetica Neue, Helvetica, Arial, sans-serif">pagecache misses</text></g><g class="detail estimated-rows" transform="translate(0, 142)" font-family="'Helvetica Neue',Helvetica,Arial,sans-serif"><text font-size="10" x="110" text-anchor="end" fill="black" font-family="Helvetica Neue, Helvetica, Arial, sans-serif">1 </text><text font-size="10" x="110" text-anchor="start" fill="black" font-family="Helvetica Neue, Helvetica, Arial, sans-serif">estimated rows</text></g><g class="detail db-hits" transform="translate(0, 156)" font-family="'Helvetica Neue',Helvetica,Arial,sans-serif"><text font-size="10" x="110" text-anchor="end" fill="black" font-family="Helvetica Neue, Helvetica, Arial, sans-serif">2 </text><text font-size="10" x="110" text-anchor="start" fill="black" font-family="Helvetica Neue, Helvetica, Arial, sans-serif">db hits</text></g></g></g></svg>